<svg xmlns="http://www.w3.org/2000/svg" xmlns:xlink="http://www.w3.org/1999/xlink" width="240" height="51.35625000000005" viewBox="0 0 240 51.30334913777534" class="css-1j8o68f">
<defs id="SvgjsDefs2157"/>
<g id="SvgjsG2158" transform="matrix(1,0,0,1,0,-15) scale(3)" fill="#000000">
<path d="M12.88 17.58 l-0.76 0.78 c-1.34 1.34 -3.1 2 -4.84 2 l0 0.02 c-1.76 -0.02 -3.52 -0.68 -4.86 -2.02 l0 0 c-1.04 -1.06 -1.7 -2.38 -1.92 -3.76 l2.3 0 c0.18 0.8 0.6 1.56 1.22 2.16 l0 0.02 c0.88 0.9 2.08 1.34 3.26 1.34 l0 0 c0.84 0 1.66 -0.22 2.38 -0.68 l-8 -8 l0.76 -0.78 c1.34 -1.32 3.1 -2 4.86 -2 l0 0 c1.74 0 3.5 0.66 4.84 2 l0 0 c1.06 1.06 1.72 2.4 1.92 3.76 l-2.28 0 c-0.2 -0.78 -0.6 -1.56 -1.22 -2.16 l0 0 c-0.9 -0.92 -2.1 -1.36 -3.26 -1.36 l0 0 c-0.84 0 -1.68 0.24 -2.4 0.68 z"/>
</g>
<g id="SvgjsG2159" transform="matrix(1,0,0,1,55,15) scale(1.5)" fill="#000000">
<path d="M0.86 14 c0 1.3733 0.82666 2.53 2.48 3.47 s3.68 1.41 6.08 1.41 c2.3866 0 4.3334 -0.26 5.84 -0.78 c1.8133 -0.62666 2.72 -1.5467 2.72 -2.76 c0 -1.2667 -0.77334 -2.18 -2.32 -2.74 c-0.88 -0.32 -2.5934 -0.65334 -5.14 -1 l-1.98 -0.28 c-2.4134 -0.34666 -4.0134 -0.65332 -4.8 -0.91998 c-1.1733 -0.4 -1.76 -0.98 -1.76 -1.74 c0 -0.72 0.69334 -1.3067 2.08 -1.76 s3.1734 -0.68 5.36 -0.68 c2.0134 0 3.7566 0.37334 5.23 1.12 s2.21 1.6333 2.21 2.66 l0 0 c0 0.37334 0.18666 0.56 0.56 0.56 s0.56 -0.18666 0.56 -0.56 l0 0 c0 -1.3733 -0.82666 -2.53 -2.48 -3.47 s-3.68 -1.41 -6.08 -1.41 c-2.3866 0 -4.3334 0.26 -5.84 0.78 c-1.8133 0.62666 -2.72 1.5467 -2.72 2.76 c0 1.2667 0.80666 2.1866 2.42 2.76 c0.77334 0.26666 2.48 0.6 5.12 1 l0.94 0.14 l1.02 0.14 c2.44 0.33334 4.06 0.64 4.86 0.92 c1.0933 0.37334 1.64 0.94668 1.64 1.72 c0 0.72 -0.69334 1.3067 -2.08 1.76 s-3.1734 0.68 -5.36 0.68 c-2.0134 0 -3.7566 -0.37334 -5.23 -1.12 s-2.21 -1.6333 -2.21 -2.66 l0 0 c0 -0.37334 -0.18666 -0.56 -0.56 -0.56 s-0.56 0.18666 -0.56 0.56 z M28.240000000000002 5.220000000000001 c-2.4266 0 -4.5066 0.66 -6.24 1.98 c-1.7733 1.3467 -2.66 2.9866 -2.66 4.92 s0.88666 3.5734 2.66 4.92 c1.72 1.3067 3.8 1.96 6.24 1.96 s4.5134 -0.65334 6.22 -1.96 c1.7733 -1.36 2.66 -3 2.66 -4.92 s-0.88666 -3.56 -2.66 -4.92 c-1.7333 -1.32 -3.8066 -1.98 -6.22 -1.98 z M36.019999999999996 12.120000000000001 c0 1.5867 -0.76 2.9434 -2.28 4.07 s-3.3534 1.69 -5.5 1.69 s-3.98 -0.56334 -5.5 -1.69 s-2.28 -2.4834 -2.28 -4.07 c0 -1.6 0.76 -2.9634 2.28 -4.09 s3.3534 -1.69 5.5 -1.69 s3.98 0.56334 5.5 1.69 s2.28 2.49 2.28 4.09 z M55.24 17.72 l-7.46 -7.46 l7.32 -3.66 c0.2 -0.09334 0.3 -0.25334 0.3 -0.48 c0 -0.21334 -0.08666 -0.37334 -0.26 -0.48 s-0.35334 -0.11332 -0.54 -0.01998 l-15.2 7.6 l0 -7.1 c0 -0.37334 -0.18666 -0.56 -0.56 -0.56 s-0.56 0.18666 -0.56 0.56 l0 12 c0 0.36 0.18666 0.54 0.56 0.54 s0.56 -0.18 0.56 -0.54 l0 -3.66 l7.34 -3.68 l7.7 7.72 c0.10666 0.10666 0.24 0.16 0.4 0.16 c0.37334 0 0.56 -0.18666 0.56 -0.56 c0 -0.14666 -0.05334 -0.27332 -0.16 -0.37998 z M77.94 17.64 l-10.76 -12.5 l-10.42 12.5 c-0.08 0.09334 -0.12 0.20668 -0.12 0.34002 c0 0.38666 0.19334 0.58 0.58 0.58 c0.16 0 0.29334 -0.06666 0.4 -0.2 l0 0 l3.16 -3.8 l13.04 0 l3.28 3.8 c0.12 0.13334 0.26666 0.2 0.44 0.2 c0.36 0 0.54 -0.18 0.54 -0.54 c0 -0.14666 -0.04666 -0.27332 -0.14 -0.37998 z M61.72 13.440000000000001 l5.48 -6.58 l5.68 6.58 l-11.16 0 z M92.22 5.4399999999999995 l-12.56 0 l0 12.56 c0 0.37334 0.18666 0.56 0.56 0.56 s0.56 -0.18666 0.56 -0.56 l0 -3.44 l11.44 0 c1.2667 0 2.3434 -0.44666 3.23 -1.34 s1.33 -1.9667 1.33 -3.22 c0 -1.2667 -0.44334 -2.3434 -1.33 -3.23 s-1.9633 -1.33 -3.23 -1.33 z M92.22 13.440000000000001 l-11.44 0 l0 -6.88 l11.44 0 c0.94666 0 1.7567 0.33666 2.43 1.01 s1.01 1.4833 1.01 2.43 s-0.33666 1.7567 -1.01 2.43 s-1.4833 1.01 -2.43 1.01 z M111 5.4399999999999995 l-12.56 0 l0 12.56 c0 0.37334 0.18666 0.56 0.56 0.56 s0.56 -0.18666 0.56 -0.56 l0 -3.44 l11.44 0 c1.2667 0 2.3434 -0.44666 3.23 -1.34 s1.33 -1.9667 1.33 -3.22 c0 -1.2667 -0.44334 -2.3434 -1.33 -3.23 s-1.9633 -1.33 -3.23 -1.33 z M111 13.440000000000001 l-11.44 0 l0 -6.88 l11.44 0 c0.94666 0 1.7567 0.33666 2.43 1.01 s1.01 1.4833 1.01 2.43 s-0.33666 1.7567 -1.01 2.43 s-1.4833 1.01 -2.43 1.01 z"/>
</g>
</svg>