<svg xmlns="http://www.w3.org/2000/svg" xmlns:xlink="http://www.w3.org/1999/xlink" width="135" height="150" viewBox="0 0 135 150" class="css-1j8o68f">
<defs id="SvgjsDefs2157"/>
<g id="SvgjsG2158" transform="matrix(8.862628647416628,0,0,8.862628647416628,0.56868990232235,0.025113891526246)" fill="#000000">
<path d="M12.88 12.58 l-0.76 0.78 c-1.34 1.34 -3.1 2 -4.84 2 l0 0.02 c-1.76 -0.02 -3.52 -0.68 -4.86 -2.02 l0 0 c-1.04 -1.06 -1.7 -2.38 -1.92 -3.76 l2.3 0 c0.18 0.8 0.6 1.56 1.22 2.16 l0 0.02 c0.88 0.9 2.08 1.34 3.26 1.34 l0 0 c0.84 0 1.66 -0.22 2.38 -0.68 l-8 -8 l0.76 -0.78 c1.34 -1.32 3.1 -2 4.86 -2 l0 0 c1.74 0 3.5 0.66 4.84 2 l0 0 c1.06 1.06 1.72 2.4 1.92 3.76 l-2.28 0 c-0.2 -0.78 -0.6 -1.56 -1.22 -2.16 l0 0 c-0.9 -0.92 -2.1 -1.36 -3.26 -1.36 l0 0 c-0.84 0 -1.68 0.24 -2.4 0.68 z"/>
</g>
</svg>